<svg id="Group_6.svg" data-name="Group 6.svg" xmlns="http://www.w3.org/2000/svg" width="105" height="112.06" viewBox="0 0 105 112.06">
  <defs>
    <style>
      .cls-1 {
        fill: #fdc800;
        opacity: 0.65;
      }

      .cls-2 {
        fill: #44224b;
        fill-rule: evenodd;
        opacity: 0.8;
      }
    </style>
  </defs>
  <circle id="Ellipse_11_copy_3" data-name="Ellipse 11 copy 3" class="cls-1" cx="60.265" cy="67.325" r="44.735"/>
  <path class="cls-2" d="M1622.93,1614.43a4.685,4.685,0,1,1-4.68-4.71A4.7,4.7,0,0,1,1622.93,1614.43Zm17.82-4.71a4.71,4.71,0,1,0,4.69,4.71A4.7,4.7,0,0,0,1640.75,1609.72Zm26.25,0.95a37.5,37.5,0,1,1-37.5-37.67A37.593,37.593,0,0,1,1667,1610.67Zm-42.53-29.68a29.956,29.956,0,0,0,25.65,14.61,31.57,31.57,0,0,0,5.03-.45,29.943,29.943,0,0,0-25.65-14.62A30.439,30.439,0,0,0,1624.47,1580.99Zm-23.4,20.15a30.357,30.357,0,0,0,13.73-16.73A30.275,30.275,0,0,0,1601.07,1601.14Zm58.43,9.53a29.7,29.7,0,0,0-1.24-8.44,38.742,38.742,0,0,1-8.14.9,37.417,37.417,0,0,1-29.1-13.9,37.618,37.618,0,0,1-21.52,20.91,3.117,3.117,0,0,1,0,.53A30,30,0,1,0,1659.5,1610.67Z" transform="translate(-1592 -1573)"/>
</svg>
